# xmcd
#
# Track frame offsets:
#	150
#	18385
#	31410
#	46830
#	65935
#	84687
#	102527
#	118770
#	132655
#	149035
#	164677
#
# Disc length: 2446 seconds
#
# Revision: 2
# Processed by: cddbd v1.5.2PL0 Copyright (c) Steve Scherf et al.
# Submitted via: EasyCDDAExtractor 15.3.0.1
#
DISCID=ad098c0b
DTITLE=Pandora - Buenaventura
DYEAR=1988
DGENRE=Latin
TTITLE0=Hay Que Empezar Desde Abajo
TTITLE1=Sin Ti
TTITLE2=Atrapada
TTITLE3=Reflejos
TTITLE4=Amor Canalla
TTITLE5=No Puedo Dejar De Pensar En Ti
TTITLE6=Basta Enamorarse Nuevamente
TTITLE7=Flor De Verano
TTITLE8=Los Escalofrios No Mienten
TTITLE9=Buenaventura
TTITLE10=Tiempo Al Tiempo
EXTD=
EXTT0=
EXTT1=
EXTT2=
EXTT3=
EXTT4=
EXTT5=
EXTT6=
EXTT7=
EXTT8=
EXTT9=
EXTT10=
PLAYORDER=
